<svg width="112" height="22" viewBox="0 0 112 22" fill="none" xmlns="http://www.w3.org/2000/svg">
<path d="M9.707 4.21266C10.0281 3.22434 11.4263 3.22434 11.7474 4.21266L12.8948 7.74386C13.0384 8.18585 13.4503 8.48509 13.915 8.48509H17.6279C18.6671 8.48509 19.0992 9.81486 18.2585 10.4257L15.2547 12.6081C14.8787 12.8812 14.7214 13.3654 14.865 13.8074L16.0123 17.3386C16.3335 18.3269 15.2023 19.1488 14.3616 18.538L11.3578 16.3556C10.9818 16.0824 10.4727 16.0824 10.0967 16.3556L7.09287 18.538C6.25216 19.1488 5.12099 18.3269 5.44211 17.3386L6.58947 13.8074C6.73308 13.3654 6.57575 12.8812 6.19978 12.6081L3.19596 10.4257C2.35525 9.81486 2.78732 8.48509 3.82649 8.48509H7.53942C8.00415 8.48509 8.41603 8.18585 8.55964 7.74386L9.707 4.21266Z" fill="url(#paint0_linear_80_23210)"/>
<path d="M32.1616 4.21266C32.4827 3.22434 33.8809 3.22434 34.202 4.21266L35.3494 7.74386C35.493 8.18585 35.9049 8.48509 36.3696 8.48509H40.0825C41.1217 8.48509 41.5538 9.81486 40.7131 10.4257L37.7093 12.6081C37.3333 12.8812 37.176 13.3654 37.3196 13.8074L38.4669 17.3386C38.788 18.3269 37.6569 19.1488 36.8162 18.538L33.8123 16.3556C33.4364 16.0824 32.9273 16.0824 32.5513 16.3556L29.5475 18.538C28.7067 19.1488 27.5756 18.3269 27.8967 17.3386L29.0441 13.8074C29.1877 13.3654 29.0303 12.8812 28.6544 12.6081L25.6505 10.4257C24.8098 9.81486 25.2419 8.48509 26.2811 8.48509H29.994C30.4587 8.48509 30.8706 8.18585 31.0142 7.74386L32.1616 4.21266Z" fill="url(#paint1_linear_80_23210)"/>
<path d="M54.6162 4.21266C54.9373 3.22434 56.3355 3.22434 56.6566 4.21266L57.804 7.74386C57.9476 8.18585 58.3595 8.48509 58.8242 8.48509H62.5371C63.5763 8.48509 64.0084 9.81486 63.1677 10.4257L60.1638 12.6081C59.7879 12.8812 59.6305 13.3654 59.7742 13.8074L60.9215 17.3386C61.2426 18.3269 60.1115 19.1488 59.2708 18.538L56.2669 16.3556C55.891 16.0824 55.3818 16.0824 55.0059 16.3556L52.002 18.538C51.1613 19.1488 50.0302 18.3269 50.3513 17.3386L51.4986 13.8074C51.6423 13.3654 51.4849 12.8812 51.109 12.6081L48.1051 10.4257C47.2644 9.81486 47.6965 8.48509 48.7357 8.48509H52.4486C52.9133 8.48509 53.3252 8.18585 53.4688 7.74386L54.6162 4.21266Z" fill="url(#paint2_linear_80_23210)"/>
<path d="M77.0708 4.21266C77.3919 3.22434 78.7901 3.22434 79.1112 4.21266L80.2586 7.74386C80.4022 8.18585 80.8141 8.48509 81.2788 8.48509H84.9917C86.0309 8.48509 86.463 9.81486 85.6222 10.4257L82.6184 12.6081C82.2425 12.8812 82.0851 13.3654 82.2287 13.8074L83.3761 17.3386C83.6972 18.3269 82.5661 19.1488 81.7253 18.538L78.7215 16.3556C78.3455 16.0824 77.8364 16.0824 77.4605 16.3556L74.4566 18.538C73.6159 19.1488 72.4848 18.3269 72.8059 17.3386L73.9532 13.8074C74.0968 13.3654 73.9395 12.8812 73.5635 12.6081L70.5597 10.4257C69.719 9.81486 70.1511 8.48509 71.1903 8.48509H74.9032C75.3679 8.48509 75.7798 8.18585 75.9234 7.74386L77.0708 4.21266Z" fill="url(#paint3_linear_80_23210)"/>
<path d="M99.5251 4.21266C99.8462 3.22434 101.244 3.22434 101.566 4.21266L102.713 7.74386C102.857 8.18585 103.268 8.48509 103.733 8.48509H107.446C108.485 8.48509 108.917 9.81486 108.077 10.4257L105.073 12.6081C104.697 12.8812 104.539 13.3654 104.683 13.8074L105.83 17.3386C106.152 18.3269 105.02 19.1488 104.18 18.538L101.176 16.3556C100.8 16.0824 100.291 16.0824 99.9148 16.3556L96.911 18.538C96.0703 19.1488 94.9391 18.3269 95.2602 17.3386L96.4076 13.8074C96.5512 13.3654 96.3939 12.8812 96.0179 12.6081L93.0141 10.4257C92.1734 9.81486 92.6054 8.48509 93.6446 8.48509H97.3575C97.8223 8.48509 98.2341 8.18585 98.3778 7.74386L99.5251 4.21266Z" fill="url(#paint4_linear_80_23210)"/>
<defs>
<linearGradient id="paint0_linear_80_23210" x1="2.75171" y1="3.47142" x2="20.6038" y2="6.1696" gradientUnits="userSpaceOnUse">
<stop stop-color="#FFF06D"/>
<stop offset="1" stop-color="#7F60F9"/>
</linearGradient>
<linearGradient id="paint1_linear_80_23210" x1="25.2063" y1="3.47142" x2="43.0584" y2="6.1696" gradientUnits="userSpaceOnUse">
<stop stop-color="#FFF06D"/>
<stop offset="1" stop-color="#7F60F9"/>
</linearGradient>
<linearGradient id="paint2_linear_80_23210" x1="47.6609" y1="3.47142" x2="65.513" y2="6.1696" gradientUnits="userSpaceOnUse">
<stop stop-color="#FFF06D"/>
<stop offset="1" stop-color="#7F60F9"/>
</linearGradient>
<linearGradient id="paint3_linear_80_23210" x1="70.1155" y1="3.47142" x2="87.9676" y2="6.1696" gradientUnits="userSpaceOnUse">
<stop stop-color="#FFF06D"/>
<stop offset="1" stop-color="#7F60F9"/>
</linearGradient>
<linearGradient id="paint4_linear_80_23210" x1="92.5698" y1="3.47142" x2="110.422" y2="6.1696" gradientUnits="userSpaceOnUse">
<stop stop-color="#FFF06D"/>
<stop offset="1" stop-color="#7F60F9"/>
</linearGradient>
</defs>
</svg>
